<svg width="344" height="344" viewBox="0 0 344 344" fill="none" xmlns="http://www.w3.org/2000/svg">
<path fill-rule="evenodd" clip-rule="evenodd" d="M178.962 343.862C270.727 340.208 344 264.661 344 172C344 122.34 322.954 77.5946 289.295 46.1979L259.99 213.142C247.399 285.643 222.409 327.453 178.962 343.862ZM244.21 15.8465L210.055 210.723C198.532 276.039 175.005 302.166 130.832 302.166C92.9016 302.166 74.1762 279.426 66.494 244.591L21.9527 256.145C7.97299 231.27 0 202.566 0 172C0 77.007 77.007 0 172 0C197.789 0 222.253 5.67584 244.21 15.8465Z" fill="#2A25FF"/>
</svg>
